<svg width="24" height="18" viewBox="0 0 24 18" fill="none" xmlns="http://www.w3.org/2000/svg">
<path d="M22.6471 8.50224C21.6528 4.0074 20.1566 1.60834 17.9371 0.953023C17.4705 0.81617 16.9865 0.747801 16.5003 0.750054C15.8577 0.750054 15.298 0.906616 14.706 1.07255C13.9925 1.27271 13.1821 1.50005 12.0003 1.50005C10.8186 1.50005 10.0077 1.27318 9.29284 1.07302C8.70034 0.906616 8.14112 0.750054 7.50034 0.750054C6.99757 0.748311 6.497 0.816463 6.013 0.952554C3.80518 1.60505 2.30987 4.00318 1.30112 8.49943C0.216434 13.3379 0.75034 16.3927 2.79831 17.1015C3.07903 17.2004 3.37441 17.2514 3.67206 17.2524C5.07503 17.2524 6.20003 16.0838 6.96878 15.1271C7.83737 14.0443 8.85409 13.4949 12.0003 13.4949C14.8105 13.4949 15.9735 13.876 16.978 15.1271C17.6094 15.9136 18.2061 16.464 18.8014 16.8104C19.5932 17.2707 20.3844 17.3729 21.1527 17.109C22.363 16.696 23.0567 15.6043 23.2152 13.8633C23.3357 12.5283 23.15 10.7747 22.6471 8.50224ZM9.75034 8.25005H8.25034V9.75005C8.25034 9.94897 8.17132 10.1397 8.03067 10.2804C7.89002 10.421 7.69925 10.5001 7.50034 10.5001C7.30143 10.5001 7.11066 10.421 6.97001 10.2804C6.82936 10.1397 6.75034 9.94897 6.75034 9.75005V8.25005H5.25034C5.05143 8.25005 4.86066 8.17104 4.72001 8.03038C4.57936 7.88973 4.50034 7.69897 4.50034 7.50005C4.50034 7.30114 4.57936 7.11038 4.72001 6.96972C4.86066 6.82907 5.05143 6.75005 5.25034 6.75005H6.75034V5.25005C6.75034 5.05114 6.82936 4.86038 6.97001 4.71972C7.11066 4.57907 7.30143 4.50005 7.50034 4.50005C7.69925 4.50005 7.89002 4.57907 8.03067 4.71972C8.17132 4.86038 8.25034 5.05114 8.25034 5.25005V6.75005H9.75034C9.94925 6.75005 10.14 6.82907 10.2807 6.96972C10.4213 7.11038 10.5003 7.30114 10.5003 7.50005C10.5003 7.69897 10.4213 7.88973 10.2807 8.03038C10.14 8.17104 9.94925 8.25005 9.75034 8.25005ZM13.6878 8.43755C13.5024 8.43755 13.3212 8.38257 13.167 8.27956C13.0128 8.17654 12.8927 8.03013 12.8217 7.85882C12.7507 7.68751 12.7322 7.49901 12.7684 7.31716C12.8045 7.1353 12.8938 6.96825 13.0249 6.83714C13.156 6.70603 13.3231 6.61674 13.5049 6.58057C13.6868 6.54439 13.8753 6.56296 14.0466 6.63392C14.2179 6.70487 14.3643 6.82504 14.4673 6.97921C14.5704 7.13338 14.6253 7.31463 14.6253 7.50005C14.6253 7.74869 14.5266 7.98715 14.3508 8.16297C14.1749 8.33878 13.9365 8.43755 13.6878 8.43755ZM15.7503 10.5001C15.5648 10.5001 15.3835 10.445 15.2293 10.3419C15.075 10.2388 14.9549 10.0922 14.884 9.92078C14.8131 9.74933 14.7947 9.56071 14.831 9.37879C14.8674 9.19687 14.9569 9.02983 15.0883 8.89881C15.2196 8.76779 15.3869 8.67869 15.5689 8.64278C15.7509 8.60687 15.9395 8.62577 16.1107 8.69709C16.282 8.76841 16.4283 8.88894 16.531 9.04341C16.6337 9.19789 16.6883 9.37938 16.6878 9.5649C16.6872 9.81313 16.5882 10.051 16.4124 10.2263C16.2367 10.4016 15.9986 10.5001 15.7503 10.5001ZM15.7503 6.37505C15.5649 6.37505 15.3837 6.32007 15.2295 6.21706C15.0753 6.11404 14.9552 5.96763 14.8842 5.79632C14.8132 5.62501 14.7947 5.43651 14.8309 5.25466C14.867 5.0728 14.9563 4.90575 15.0874 4.77464C15.2185 4.64353 15.3856 4.55424 15.5674 4.51807C15.7493 4.48189 15.9378 4.50046 16.1091 4.57142C16.2804 4.64237 16.4268 4.76254 16.5298 4.91671C16.6329 5.07088 16.6878 5.25213 16.6878 5.43755C16.6878 5.68619 16.5891 5.92465 16.4133 6.10047C16.2374 6.27628 15.999 6.37505 15.7503 6.37505ZM17.8128 8.43755C17.6274 8.43755 17.4462 8.38257 17.292 8.27956C17.1378 8.17654 17.0177 8.03013 16.9467 7.85882C16.8757 7.68751 16.8572 7.49901 16.8934 7.31716C16.9295 7.1353 17.0188 6.96825 17.1499 6.83714C17.281 6.70603 17.4481 6.61674 17.6299 6.58057C17.8118 6.54439 18.0003 6.56296 18.1716 6.63392C18.3429 6.70487 18.4893 6.82504 18.5923 6.97921C18.6954 7.13338 18.7503 7.31463 18.7503 7.50005C18.7503 7.74869 18.6516 7.98715 18.4758 8.16297C18.2999 8.33878 18.0615 8.43755 17.8128 8.43755Z" fill="white" fill-opacity="0.76"/>
</svg>
