<svg width="22" height="24" viewBox="0 0 22 24" fill="none" xmlns="http://www.w3.org/2000/svg">
<path d="M21.1349 5.74266L11.3515 0.0942187C11.1339 -0.0314063 10.8659 -0.0314063 10.6484 0.0942187L0.86499 5.74266C0.647443 5.86823 0.513428 6.10036 0.513428 6.35156V17.6484C0.513428 17.8996 0.647443 18.1318 0.86499 18.2573L10.6484 23.9058C10.8659 24.0314 11.1339 24.0314 11.3515 23.9058L21.1349 18.2573C21.3524 18.1318 21.4864 17.8996 21.4864 17.6484V6.35156C21.4864 6.10036 21.3525 5.86823 21.1349 5.74266ZM8.36401 14.2594C8.36401 14.6477 8.04919 14.9625 7.66088 14.9625H6.90774C6.62386 14.9625 6.36788 14.7918 6.25871 14.5298L4.97494 11.4488V14.2594C4.94035 15.1913 3.60296 15.1906 3.56869 14.2594V9.74063C3.56869 9.35231 3.88351 9.0375 4.27182 9.0375H5.02496C5.30883 9.0375 5.56482 9.20817 5.67399 9.4702L6.95776 12.5513V9.74063C6.99235 8.8087 8.32974 8.80941 8.36401 9.74063V14.2594ZM13.2593 10.4438H10.9999V11.6734H12.5062C13.4381 11.708 13.4374 13.0454 12.5062 13.0797H10.9999V14.2594C10.9653 15.1913 9.62794 15.1906 9.59368 14.2594V9.74063C9.59368 9.35231 9.90849 9.0375 10.2968 9.0375H13.2593C14.1912 9.07209 14.1905 10.4095 13.2593 10.4438ZM18.1546 10.4438H17.3515V14.2594C17.3169 15.1913 15.9795 15.1906 15.9452 14.2594V10.4438H15.1421C14.2102 10.4092 14.2109 9.07177 15.1421 9.0375H18.1546C19.0865 9.07209 19.0858 10.4095 18.1546 10.4438Z" fill="white" fill-opacity="0.76"/>
</svg>
